<svg xmlns="http://www.w3.org/2000/svg" width="137.855" height="137.855" viewBox="0 0 36.474 36.474"><g transform="translate(-133.71 -116.233)"><circle transform="rotate(-34.665)" cy="196.925" cx="49.31" r=".107" fill="#0f6"/><g style="line-height:1.25;-inkscape-font-specification:'Montserrat Bold';text-align:end"><path d="M145.843 148.023l-.426-.2.863-1.841.426.2zm-2.673-1.519l1.09-1.716.326.207.193 1.586.663-1.042.392.25-1.09 1.715-.33-.209-.19-1.584-.663 1.042zm-.687-.528l-.675-.63q-.241-.227-.339-.492-.101-.266-.046-.53.052-.264.26-.487.209-.223.47-.293.258-.073.532.009.27.08.512.307l.675.63zm.467-1.818q-.223-.208-.47-.208-.25 0-.448.212-.199.213-.18.46.014.249.237.457l.314.294.861-.921zm-2.347-.071l-.298-.364 1.57-1.29.3.363zm-.126-2.923l.504.798.465-.08.258.407-2.204.32-.248-.392 1.233-1.855.264.417zm-.223.316l-.486.689.83-.144zm-2.438-2.278l1.882-.768.146.358-.76 1.405 1.143-.467.176.43-1.883.769-.147-.36.761-1.403-1.143.467zm1.482-2.702q.038.238.01.471-.03.232-.111.383l-.375-.101q.074-.144.102-.331.029-.187 0-.365-.032-.198-.104-.284-.076-.085-.173-.069-.072.012-.109.077-.04.062-.054.155-.015.091-.025.246-.018.238-.049.393-.03.155-.134.28-.104.123-.304.156-.175.028-.331-.044-.159-.072-.272-.248-.115-.178-.159-.454-.03-.192-.015-.383.017-.19.08-.342l.376.086q-.112.304-.068.582.032.195.11.28.078.081.181.065.104-.017.138-.132.031-.116.044-.345.018-.238.049-.393.03-.155.132-.278.1-.125.301-.157.172-.028.331.047.156.072.27.25.114.18.159.455zm-.165-2.158q-.003.317-.141.571-.14.252-.379.395-.242.14-.541.137-.3-.002-.536-.147-.24-.147-.374-.401-.135-.257-.132-.573.003-.317.142-.569.138-.251.38-.394.24-.143.54-.14.299.002.539.15.236.147.37.4.135.255.132.571zm-.4-.003q0-.18-.08-.326-.082-.146-.23-.229-.147-.086-.336-.087-.189-.002-.337.08-.15.081-.232.225-.085.145-.087.325-.002.18.081.326.08.146.228.232.147.082.336.084.189.002.338-.078.148-.083.234-.228.083-.144.084-.324zm.652-2.413q-.058.305-.236.528-.181.22-.442.319-.264.095-.56.039-.297-.057-.505-.24-.21-.188-.294-.459-.087-.274-.03-.582.05-.26.181-.45.131-.194.33-.305l.217.349q-.272.158-.329.458-.035.186.02.347.053.16.182.27.13.108.316.143.186.036.347-.017.16-.055.271-.185.108-.13.143-.316.057-.3-.142-.547l.33-.245q.147.176.199.404.051.229.002.488zm-1.695-1.741l.141-.449 1.939.614-.142.449zm2.52-1.889l.346.154-.64 1.438-1.858-.827.625-1.404.345.154-.435.976.403.18.384-.863.335.15-.384.862.43.191zm-.634-1.411l-.347.55-.324-.204.945-1.499.325.205-.348.55 1.396.88-.25.399zm2.217-1.443l.548.469-.306.357-.552-.472-1.505-.251.325-.38 1.04.174-.334-1 .3-.35zm1.204-2.411l.325.428.75-.57.228.301-.749.57.448.59-.374.284-1.23-1.619 1.222-.93.229.301zm2.987.077q-.28.147-.57.145-.287-.003-.527-.146-.238-.147-.377-.412-.14-.265-.124-.542.017-.281.177-.52.163-.24.443-.387.28-.147.567-.144.288.004.528.15.24.143.379.408.14.265.123.546-.018.278-.178.517-.16.238-.44.385zm-.186-.355q.159-.083.25-.223.09-.142.092-.311.006-.17-.082-.338-.088-.167-.231-.259-.141-.093-.307-.098-.168-.007-.328.077t-.249.226q-.09.14-.096.31-.003.169.085.336.088.167.228.26.144.093.312.1.166.004.326-.08zm2.73-.7l-.545-.421-.022.007-.39.123.17.54-.448.143-.614-1.939.839-.266q.257-.081.473-.055.218.025.37.15.153.126.222.342.068.216.013.407-.053.187-.218.331l.632.485zm-.4-1.232q-.051-.164-.184-.216-.133-.055-.335.009l-.366.116.214.675.366-.116q.202-.064.28-.186.076-.122.025-.282zm2.298-.796l-.648.058-.034-.382 1.765-.158.034.382-.648.058.147 1.644-.47.042zm3.11 1.265l-.021.376-1.572-.09.116-2.03 1.534.088-.021.377-1.067-.061-.026.44.943.055-.021.365-.943-.054-.027.47zm1.294.671q-.305-.066-.523-.25-.215-.188-.306-.451-.087-.266-.022-.562.064-.295.254-.497.194-.204.466-.281.276-.08.583-.013.258.057.445.193.19.137.295.338l-.355.208q-.15-.277-.448-.342-.185-.04-.347.01-.162.048-.276.175-.112.127-.152.311-.04.185.007.347.05.163.178.277.127.11.311.151.298.065.551-.126l.236.337q-.18.142-.41.187-.23.045-.488-.012zm3.627-.929l-.771 1.882-.436-.179.317-.771-.855-.35-.316.771-.436-.178.771-1.882.436.178-.304.742.854.35.304-.741zm2.331 1.404l-1.1 1.71-.325-.208-.185-1.587-.668 1.04-.39-.252 1.098-1.711.328.21.183 1.586.668-1.04zm.574.479l.36.303-1.31 1.556-.36-.303zm.064 2.902q-.213-.227-.288-.503-.07-.276.004-.545.08-.268.3-.475.22-.206.492-.265.275-.058.543.033.273.091.487.32.18.194.257.412.08.22.051.446l-.41-.03q.033-.314-.175-.537-.129-.138-.292-.188-.16-.053-.326-.013-.164.041-.302.17-.138.13-.19.29-.05.163-.011.328.041.164.17.302.209.223.526.209l.002.411q-.228.015-.443-.079-.215-.093-.395-.286zm1.864 1.694l-.52-.788-.463.09-.266-.403 2.196-.363.256.388-1.196 1.879-.272-.413zm.216-.32l.472-.698-.827.16zm1.709.482l.196.428-1.5.687.425.927-.349.16-.62-1.355zm-.175 4.69l-.368.084-.347-1.536 1.984-.449.339 1.5-.369.083-.235-1.043-.431.097.208.921-.357.08-.208-.92-.46.104zm1.725.355l.048.922q.017.33-.097.59-.112.262-.334.413-.222.154-.526.17-.305.015-.541-.115-.237-.127-.378-.376-.137-.246-.155-.577l-.047-.922zm-1.598.984q.016.305.193.476.181.174.471.159.29-.015.449-.207.162-.189.146-.493l-.022-.43-1.26.066zm-.511 2.413q.057-.432.328-.642.27-.208.714-.15l1.13.15-.062.466-1.112-.146q-.541-.072-.6.378-.03.218.085.35.117.133.396.17l1.112.147-.06.46-1.13-.148q-.443-.059-.65-.332-.208-.27-.15-.703zm-.517 2.29q.092-.297.294-.499.205-.198.475-.266.273-.065.561.025.289.09.474.296.188.21.241.488.056.282-.037.582-.079.252-.23.427-.153.178-.362.265l-.177-.371q.289-.127.38-.418.055-.18.018-.347-.033-.165-.15-.29-.117-.121-.298-.177-.18-.056-.346-.022-.166.036-.29.153-.122.117-.178.297-.09.292.079.56l-.356.206q-.126-.191-.151-.424-.025-.233.053-.485zm-.543 2.458l.422-.845-.31-.356.217-.431 1.413 1.72-.208.416-2.226-.096.221-.442zm.386.027l.84.06-.552-.637zm-.067 1.753l.376-.531.313.221-1.023 1.447-.313-.222.376-.53-1.347-.954.272-.384zm-.653 1.483l-.311.353-1.525-1.346.312-.352zm-2.912.003q.24-.208.523-.272.28-.063.546.022.265.09.461.315.196.226.245.5.048.277-.054.546-.103.27-.342.478-.24.207-.52.27-.28.062-.548-.025-.266-.085-.462-.311-.196-.226-.244-.504-.046-.275.055-.543.102-.27.341-.477zm.263.303q-.136.117-.192.274-.055.159-.02.324.034.167.158.31t.284.2q.159.058.322.024.165-.031.3-.15.137-.117.192-.276.056-.157.023-.324-.036-.165-.16-.308-.123-.142-.282-.201-.16-.057-.326-.025-.163.033-.299.151zm-1.971 3.342l-1.023-1.757.334-.195 1.497.557-.621-1.067.402-.234 1.023 1.758-.337.196-1.495-.559.621 1.067z" style="-inkscape-font-specification:'Montserrat Bold'" aria-label="INDIAN SOCIETY FOR TECHNICAL EDUCATION" font-weight="700" font-size="2.858" font-family="Montserrat" letter-spacing="0" word-spacing="0" text-anchor="end" fill="#0f6"/></g><path d="M154.211 122.807h-.002a11.876 11.864 0 01.005.002 5.725 5.725 0 00-.003-.002z" fill="#0f6"/><circle r="17.187" cy="134.47" cx="151.946" fill="none" stroke="#0f6" stroke-width="2.1" stroke-linecap="round"/><path d="M151.947 123.906a4.426 4.426 0 00-4.427 4.427 4.426 4.426 0 004.427 4.426 4.426 4.426 0 004.426-4.426 4.426 4.426 0 00-4.426-4.427zm-1.413 3.352c.133 0 .262.016.389.047.126.032.237.077.332.137l-.148.365a1.158 1.158 0 00-.576-.163.548.548 0 00-.3.065.2.2 0 00-.095.172c0 .071.037.125.11.16.075.034.189.068.341.101.159.038.288.076.389.113.1.038.187.097.258.178a.47.47 0 01.11.33.57.57 0 01-.1.326.662.662 0 01-.297.232 1.215 1.215 0 01-.484.085 1.74 1.74 0 01-.478-.065 1.14 1.14 0 01-.368-.175l.163-.362a1.192 1.192 0 00.686.217.6.6 0 00.303-.06c.065-.041.097-.095.097-.163a.15.15 0 00-.059-.122.405.405 0 00-.148-.08c-.06-.02-.14-.041-.244-.065a3.388 3.388 0 01-.388-.113.643.643 0 01-.261-.181.493.493 0 01-.107-.332c0-.12.032-.23.097-.326a.656.656 0 01.294-.235c.133-.057.294-.086.484-.086zm-1.727.035h.48v2.078h-.48v-2.078zm2.605 0h1.81v.392h-.664v1.686h-.48v-1.686h-.666v-.392zm2.066 0h1.57v.386h-1.092v.452h.964v.373h-.964v.481h1.13v.386h-1.608v-2.078z" fill="#0f6"/><path d="M154.089 123.459a5.408 5.408 0 011.605 1.102 5.476 5.476 0 011.585 3.826 5.477 5.477 0 01-1.585 3.827 5.25 5.25 0 01-.442.394 5.416 5.416 0 011.986-.384 5.476 5.476 0 013.826 1.585 5.476 5.476 0 011.585 3.826c0 .063-.002.126-.005.188a11.22 11.208 0 00.522-3.367 11.22 11.208 0 00-9.077-10.997zm-4.603.076a11.22 11.208 0 00-8.76 10.921 11.22 11.208 0 00.533 3.371 5.093 5.093 0 01-.007-.257 5.476 5.476 0 011.585-3.826 5.476 5.476 0 013.826-1.586c.531 0 1.061.082 1.569.238a5.185 5.185 0 01-.191-.182 5.477 5.477 0 01-1.584-3.827 5.476 5.476 0 011.585-3.826 5.39 5.39 0 011.443-1.025z" fill="#0f6"/><path d="M157.239 133.208a4.426 4.426 0 00-4.427 4.427 4.426 4.426 0 004.427 4.426 4.426 4.426 0 004.426-4.426 4.426 4.426 0 00-4.426-4.427zm-.188.845h.374l.13.598a3.002 3.002 0 01.403.073l.33-.519.35.128-.081.61a3.002 3.002 0 01.355.202l.486-.373.285.238-.284.543a3.002 3.002 0 01.262.315l.586-.186.187.323-.455.416a3.002 3.002 0 01.142.382l.612.027.065.367-.566.233a3.002 3.002 0 01.007.205 3.002 3.002 0 01-.01.205l.568.234-.064.367-.614.026a3.002 3.002 0 01-.14.384l.454.414-.187.323-.586-.186a3.002 3.002 0 01-.263.313l.285.545-.285.24-.487-.375a3.002 3.002 0 01-.354.205l.082.608-.35.127-.33-.519a3.002 3.002 0 01-.403.071l-.132.6h-.372l-.133-.597a3.002 3.002 0 01-.402-.074l-.33.52-.35-.128.082-.61a3.002 3.002 0 01-.356-.202l-.486.373-.285-.239.283-.543a3.002 3.002 0 01-.26-.315l-.587.186-.186-.323.455-.416a3.002 3.002 0 01-.143-.382l-.612-.026-.065-.367.565-.233a3.002 3.002 0 01-.006-.206 3.002 3.002 0 01.01-.204l-.568-.234.065-.367.614-.026a3.002 3.002 0 01.14-.385l-.455-.414.187-.322.586.185a3.002 3.002 0 01.262-.313l-.284-.545.286-.238.486.374a3.002 3.002 0 01.354-.205l-.08-.609.349-.127.33.519a3.002 3.002 0 01.402-.07l.132-.601zm.187 1.31a2.273 2.273 0 00-2.273 2.273 2.273 2.273 0 002.273 2.273 2.273 2.273 0 002.272-2.273 2.273 2.273 0 00-2.272-2.272zm0 .494a1.78 1.78 0 011.78 1.78 1.78 1.78 0 01-1.78 1.778 1.78 1.78 0 01-1.78-1.779 1.78 1.78 0 011.78-1.78zm-3.385-2.441a5.416 5.416 0 01-1.985.383 5.374 5.374 0 01-1.569-.237c.066.059.13.12.192.182a5.48 5.48 0 011.467 2.724 5.477 5.477 0 011.454-2.658 5.25 5.25 0 01.441-.394z" fill="#0f6"/><path d="M151.944 138.738a5.477 5.477 0 01-1.453 2.658 5.476 5.476 0 01-3.827 1.585 5.477 5.477 0 01-2.86-.822 11.22 11.208 0 008.143 3.506 11.22 11.208 0 007.97-3.333 5.467 5.467 0 01-2.68.715 5.476 5.476 0 01-3.825-1.585 5.48 5.48 0 01-1.468-2.724z" fill="#0f6"/><path d="M146.656 133.209a4.426 4.426 0 00-4.427 4.426 4.426 4.426 0 004.427 4.427 4.426 4.426 0 004.425-4.427 4.426 4.426 0 00-4.425-4.426zm.226 1.502c-.068 1.59.13 1.182.261 1.923 0 .555-.085.869-.444 1.292a2.343 2.343 0 001.784.828 2.344 2.344 0 001.627-.662 3.49 3.49 0 01-3.449 2.99 3.49 3.49 0 01-3.46-3.076 2.343 2.343 0 001.71.748c.69 0 1.343-.303 1.788-.828a2.343 2.343 0 01-.559-1.515c0-.555.383-1.277.742-1.7z" fill="#0f6"/></g></svg>