<svg xmlns="http://www.w3.org/2000/svg" viewBox="0 0 24 24"><path d="M12 .743C5.622.743.456 5.91.456 12.286c0 5.1 3.307 9.428 7.893 10.952.578.11.789-.248.789-.555 0-.274-.01-1-.014-1.963-3.211.697-3.889-1.548-3.889-1.548-.525-1.332-1.285-1.688-1.285-1.688-1.045-.716.081-.702.081-.702 1.16.08 1.769 1.189 1.769 1.189 1.029 1.765 2.702 1.256 3.362.96.104-.746.401-1.256.732-1.544-2.564-.288-5.26-1.281-5.26-5.704 0-1.26.448-2.29 1.189-3.098-.13-.292-.519-1.465.101-3.056 0 0 .967-.309 3.175 1.183a11.067 11.067 0 012.886-.39 11.067 11.067 0 012.885.39c2.194-1.492 3.16-1.183 3.16-1.183.62 1.59.231 2.765.116 3.056.736.807 1.183 1.838 1.183 3.097 0 4.436-2.698 5.412-5.266 5.696.403.345.778 1.054.778 2.136 0 1.544-.013 2.785-.013 3.16 0 .304.201.664.794.549a11.504 11.504 0 007.922-10.937C23.544 5.91 18.375.74 12 .74"/></svg>