<svg xmlns="http://www.w3.org/2000/svg" xmlns:xlink="http://www.w3.org/1999/xlink" width="373.577" height="493.279" viewBox="0 0 98.842 130.513"><defs><linearGradient id="a"><stop offset="0" stop-color="#00fa73"/><stop offset="1" stop-color="#008bff"/></linearGradient><linearGradient xlink:href="#a" id="b" gradientUnits="userSpaceOnUse" gradientTransform="matrix(4.78564 0 0 -4.78564 -313.955 1085.359)" x1="77.98" y1="219.432" x2="129.431" y2="129.231"/></defs><path d="M170.68 23.105c-.808.052-1.526.507-2.096 1.407l.004-.002c-1.255 1.98-1.885 27.906-1.803 74.238l.008 6.076-.148-.006v28.225c.002.03.01.05.011.08.016.24.008.453-.011.66v11.735l.062.683c.155 1.697.12 3.397-.062 4.143v16.922h-.086c.004 3.098.015 5.871.004 9.609h.001c-.02 6.793-.02 32.447-.029 52.209h-16.55v9.285h78.827v-9.285h-13.498c.324-46.46.717-71.32 1.174-72.041 1.692-2.668 7.625-1.592 17.817 3.23 17.881 8.461 31.615 21.592 43.17 41.276 8.543 14.554 13.675 38.504 12.056 56.26-2.579 28.287-14.028 50.466-35.248 68.275l-7.553 6.338.077 9.724c.263 33.687.582 40.78 1.87 41.596 4.633 2.937 29.215-12.41 46.468-29.01 11.904-11.453 28.72-37.338 34.49-53.093 15.122-41.287 11.749-86.708-9.215-124.077-13.65-24.332-24.246-34.854-58.873-58.48-27.598-18.83-37.237-26.769-51.809-42.674-12.223-13.34-25.457-32.403-31.826-45.84-2.185-4.61-4.789-7.3-6.88-7.46a2.51 2.51 0 00-.352-.003zm-24.034 85.334c-7.35 2.403-15.695 5.635-22.242 8.786-12.06 5.803-29.435 18.264-39.066 28.015-9.547 9.666-24.85 31.895-30.186 43.846-36.081 80.82 5.12 173.928 89.342 201.893 5.732 1.903 13.047 3.883 16.258 4.402l5.84.943-.053 34.744c-.03 19.11.157 35.82.41 37.131.392 2.028 1.2 2.285 5.397 1.717l4.937-.668.541-102.15c.298-56.184 1.04-102.399 1.649-102.7.609-.3 1.078 1.347 1.043 3.66-.462 29.846-1.02 178.056-.678 179.838.395 2.055 1.014 2.39 4.334 2.34 2.131-.034 4.116-.438 4.41-.902.295-.465.69-26.642.877-58.174.187-31.531.799-57.703 1.357-58.158.805-.657 1.2 71.181.506 91.96-.092 2.625.098 4.933.414 5.13.318.194 2.698.12 5.291-.164l4.715-.52.158-30.082c.088-16.545.65-30.077 1.248-30.07.6.004 1.012 8.52.918 18.916-.093 10.396-.15 19.142-.129 19.437.066.874 4.553 1.712 7.725 1.442 2.773-.236 2.95-2.497 3.047-38.885.11-41.537.245-76.401.396-105.97h13.708v-9.372h-78.829v9.371h16.532c0 2.524-.005 3.467-.004 5.977.007 39.174-.008 72.016-.043 72.982-.034 1.155-1.693 1.28-4.832.362-43.753-12.789-73.109-57.445-68.022-103.477 1.905-17.236 5.743-28.317 14.694-42.434 9.42-14.857 22.453-26.623 38.337-34.72v-4.205c-5.735 2.71-10.999 5.947-16.521 10.101-46.654 35.1-54.502 100.525-17.541 146.227 6.24 7.715 7.995 9.115 24.38 19.48 13.294 8.406 19.186 11.546 23.843 12.696l6.185 1.527-.357 4.049c-.419 4.757-.264 4.735-10.766 1.547-11.493-3.49-36.837-19.56-44.898-28.471-13.33-14.734-21.593-29.917-26.143-48.035-5.448-21.698-4.982-41.737 1.45-62.252 4.545-14.5 16.922-34.065 28.091-44.408 8.68-8.037 20.824-15.935 32.277-21.202v-8.277c-15.306 6.16-30.6 16.71-42.896 29.854-7.277 7.779-22.236 33.568-25.28 43.582-3.407 11.209-5.657 32.122-4.767 44.314 1.957 26.813 13.737 52.294 33.953 73.447 9.357 9.79 33.063 24.317 46.147 28.276 12.662 3.83 13.723 4.368 12.474 6.338-.681 1.074-4.388.675-11.228-1.21-9.155-2.522-12.146-4.038-28.93-14.67-17.331-10.977-19.279-12.514-26.281-20.71-23.823-27.884-34.197-61.605-29.707-96.57 5.616-43.74 35.35-81.1 76.515-97.422v-28.452z" transform="scale(.26458)" fill="url(#b)" stroke-width="1.266"/></svg>