<svg xmlns="http://www.w3.org/2000/svg" xmlns:xlink="http://www.w3.org/1999/xlink" viewBox="0 0 512 512"><defs><linearGradient id="a"><stop offset="0" stop-color="#0f6"/><stop offset="1" stop-color="#008baf"/></linearGradient><linearGradient xlink:href="#a" id="b" x1="13.017" y1="49.898" x2="503.983" y2="461.761" gradientUnits="userSpaceOnUse"/></defs><path d="M503.983 461.761h-12.04l-83.335-175.005a8.017 8.017 0 00-7.237-4.57h-9.087v-77.495c0-75.147-61.136-136.284-136.284-136.284s-136.284 61.136-136.284 136.284v6.3L87.104 178.38a9.028 9.028 0 01-2.662-6.425v-28.126c23.842-2.781 43.757-17.834 50.894-39.212a8.02 8.02 0 00-7.604-10.556h-43.29V83.122c9.93-3.354 17.102-12.752 17.102-23.8 0-13.851-11.268-25.119-25.119-25.119s-25.118 11.269-25.118 25.12c0 11.048 7.172 20.446 17.102 23.8v10.939h-43.29a8.015 8.015 0 00-7.604 10.556c7.137 21.378 27.053 36.431 50.894 39.212v28.126c0 6.709 2.612 13.018 7.357 17.762l43.95 43.949v48.521h-9.086a8.015 8.015 0 00-7.237 4.57L20.057 461.761H8.017a8.017 8.017 0 000 16.034h34.205a8.017 8.017 0 000-16.034h-4.406l13-27.298c.011-.004.021-.006.031-.011l104.102-42.169h65.131l-6.061 24.244a8.014 8.014 0 007.777 9.961h68.409a8.017 8.017 0 007.777-9.961l-6.061-24.244h65.131l104.102 42.169c.011.004.021.006.031.011l12.999 27.298h-4.405a8.017 8.017 0 000 16.034h17.078l.03.002.039-.002h17.058a8.017 8.017 0 10-.001-16.034zM67.34 59.323c0-5.01 4.076-9.086 9.086-9.086s9.086 4.076 9.086 9.086c0 5.01-4.076 9.086-9.086 9.086s-9.086-4.077-9.086-9.086zm-29.058 50.772h76.287c-8.272 11.073-22.572 18.171-38.143 18.171-15.572 0-29.871-7.098-38.144-18.171zm97.467 153.921h17.64a8.017 8.017 0 000-16.034h-17.64v-43.29c0-25.63 8.066-49.41 21.784-68.944h124.122a8.017 8.017 0 000-16.034H170.997C192.773 97.933 222.841 84.442 256 84.442s63.227 13.492 85.003 35.273h-25.146a8.017 8.017 0 000 16.034h38.609c13.718 19.534 21.784 43.314 21.784 68.944v43.29H296.5c11.572-10.832 18.823-26.226 18.823-43.29 0-32.711-26.612-59.324-59.324-59.324s-59.324 26.612-59.324 59.324c0 17.064 7.251 32.458 18.823 43.29h-27.909a8.017 8.017 0 000 16.034h188.66v18.171h-240.5v-18.172zM256 247.982c-23.871 0-43.29-19.42-43.29-43.29 0-23.87 19.42-43.29 43.29-43.29s43.29 19.42 43.29 43.29c0 23.871-19.419 43.29-43.29 43.29zM61.02 413.032l54.672-114.812h5.917l22.17 81.288-82.759 33.524zm171.043-2.578l4.543-18.171h38.789l4.542 18.171h-47.874zm120.427-34.205H159.51l-21.281-78.029h235.542l-21.281 78.029zm15.731 3.26l22.17-81.288h5.917l54.672 114.812-82.759-33.524z" fill="url(#b)"/></svg>