<?xml version="1.0" encoding="UTF-8" standalone="no"?>
<!-- Created with Inkscape (http://www.inkscape.org/) -->

<svg
   xmlns:dc="http://purl.org/dc/elements/1.1/"
   xmlns:cc="http://creativecommons.org/ns#"
   xmlns:rdf="http://www.w3.org/1999/02/22-rdf-syntax-ns#"
   xmlns:svg="http://www.w3.org/2000/svg"
   xmlns="http://www.w3.org/2000/svg"
   xmlns:xlink="http://www.w3.org/1999/xlink"
   xmlns:sodipodi="http://sodipodi.sourceforge.net/DTD/sodipodi-0.dtd"
   xmlns:inkscape="http://www.inkscape.org/namespaces/inkscape"
   version="1.1"
   id="svg5844"
   width="1268"
   height="1440"
   viewBox="0 0 1268 1440"
   sodipodi:docname="cable-car-vector-1975111.png-image5099-531.svg"
   inkscape:version="0.92.4 (5da689c313, 2019-01-14)">
  <metadata
     id="metadata5850">
    <rdf:RDF>
      <cc:Work
         rdf:about="">
        <dc:format>image/svg+xml</dc:format>
        <dc:type
           rdf:resource="http://purl.org/dc/dcmitype/StillImage" />
        <dc:title />
      </cc:Work>
    </rdf:RDF>
  </metadata>
  <defs
     id="defs5848">
    <linearGradient
       inkscape:collect="always"
       id="linearGradient5862">
      <stop
         style="stop-color:#00da7c;stop-opacity:1"
         offset="0"
         id="stop5858" />
      <stop
         style="stop-color:#0082af;stop-opacity:1"
         offset="1"
         id="stop5860" />
    </linearGradient>
    <linearGradient
       inkscape:collect="always"
       xlink:href="#linearGradient5862"
       id="linearGradient5864"
       x1="19.415474"
       y1="266.44244"
       x2="882.32544"
       y2="680.63922"
       gradientUnits="userSpaceOnUse" />
  </defs>
  <sodipodi:namedview
     pagecolor="#ffffff"
     bordercolor="#666666"
     borderopacity="1"
     objecttolerance="10"
     gridtolerance="10"
     guidetolerance="10"
     inkscape:pageopacity="0"
     inkscape:pageshadow="2"
     inkscape:window-width="1324"
     inkscape:window-height="709"
     id="namedview5846"
     showgrid="false"
     inkscape:zoom="0.46354778"
     inkscape:cx="781.74211"
     inkscape:cy="949.23179"
     inkscape:window-x="42"
     inkscape:window-y="27"
     inkscape:window-maximized="1"
     inkscape:current-layer="svg5844" />
  <path
     style="fill:url(#linearGradient5864);fill-opacity:1"
     d="m 383.50003,1017.2857 c -7.00995,-1.4938 -27.74709,-4.128 -54,-6.8595 -7.7,-0.8011 -16.7,-1.9277 -20,-2.5035 -5.67546,-0.9903 -15.87876,-2.1274 -49.5,-5.5167 -7.975,-0.8039 -16.12721,-1.9221 -18.11602,-2.48472 -1.98881,-0.5627 -6.98157,-1.023 -11.09501,-1.023 -5.94178,0 -7.815,-0.3713 -9.11374,-1.8064 -1.73387,-1.9159 -5.11856,-11.61026 -6.25505,-17.91557 -0.37453,-2.07792 -1.05949,-4.25872 -1.52214,-4.84623 -0.46265,-0.58752 -1.35653,-3.51252 -1.98641,-6.5 -0.62988,-2.98749 -1.50126,-5.8818 -1.9364,-6.4318 -0.43513,-0.55 -1.47109,-3.475 -2.30213,-6.5 -0.83103,-3.025 -2.49705,-8.65 -3.70226,-12.5 -1.20521,-3.85 -2.84623,-9.475 -3.64671,-12.5 -0.80049,-3.025 -2.06361,-6.85 -2.80695,-8.5 -0.74334,-1.65 -1.67248,-4.8 -2.06474,-7 -0.39227,-2.2 -1.07081,-4.45547 -1.50787,-5.01215 -0.43706,-0.55668 -1.46826,-3.70668 -2.29155,-7 -0.82328,-3.29332 -2.92004,-11.38785 -4.65945,-17.98785 -2.80561,-10.6456 -3.11538,-13.15089 -2.74452,-22.19697 0.22992,-5.60833 0.87962,-10.78333 1.44378,-11.5 0.56416,-0.71667 1.31855,-2.87803 1.67643,-4.80303 0.71071,-3.82286 4.04286,-15.72752 5.73801,-20.5 0.58607,-1.65 1.7431,-5.475 2.57119,-8.5 0.82809,-3.025 1.84925,-5.95 2.26925,-6.5 0.42,-0.55 1.31188,-3.24402 1.98196,-5.9867 0.67008,-2.74269 1.57008,-5.44269 2,-6 0.42992,-0.55732 1.32992,-3.25732 2,-6 0.67008,-2.74269 1.5761,-5.44269 2.01337,-6 0.43728,-0.55732 1.34919,-3.37719 2.02648,-6.26638 0.67729,-2.8892 1.63622,-5.50326 2.13096,-5.80902 0.49474,-0.30576 0.89952,-4.55008 0.89952,-9.43182 0,-10.48782 0.99325,-13.7153 4.49101,-14.59318 2.99623,-0.75201 3.34639,-1.35254 6.94615,-11.9129 1.49984,-4.4 3.36506,-9.41801 4.14492,-11.15113 0.77985,-1.73312 1.42069,-3.75812 1.42408,-4.5 0.003,-0.74188 0.6089,-2.50386 1.34558,-3.91552 0.73667,-1.41166 1.6686,-3.88666 2.07095,-5.5 0.40235,-1.61334 1.3086,-4.28335 2.01389,-5.93335 0.7053,-1.65 1.78595,-4.2375 2.40145,-5.75 0.94732,-2.32789 1.70817,-2.75 4.95687,-2.75 2.11078,0 6.28293,0.41418 9.27144,0.9204 2.98851,0.50622 8.24616,1.13855 11.68366,1.40517 5.64927,0.43818 6.25,0.30166 6.25,-1.4204 0,-4.21953 3.30269,-0.78443 3.43836,3.5762 0.0905,2.90889 3.56228,3.16925 5.63414,0.42251 1.62128,-2.14937 2.59941,-2.3354 14.33376,-2.72605 l 12.59374,-0.41927 v -2.98869 c 0,-3.38639 1.10523,-3.36505 -14.8579,-0.28682 -4.59684,0.88643 -8.87184,1.43671 -9.5,1.22284 -0.62815,-0.21386 1.1079,-0.72729 3.8579,-1.14095 2.75,-0.41366 5.45,-1.09547 6,-1.51513 0.55,-0.41966 3.925,-1.32192 7.5,-2.00503 6.96292,-1.33046 7.96082,-2.09715 7.98469,-6.13472 0.0155,-2.61477 0.79022,-3.04758 9.71239,-5.42564 1.53632,-0.40949 2.81449,-2.23578 4.25,-6.07252 1.12911,-3.01781 2.05292,-6.05504 2.05292,-6.74941 0,-0.69437 0.39019,-1.68999 0.86709,-2.21249 0.47689,-0.5225 1.60832,-3.18652 2.51427,-5.92004 l 1.64719,-4.97003 -11.24796,-11.27997 c -7.72441,-7.74638 -11.95791,-11.27996 -13.51428,-11.27996 -1.56275,0 -2.26631,-0.59197 -2.26631,-1.90688 0,-1.08616 -2.2596,-3.76272 -5.25,-6.21876 -5.88549,-4.83381 -18.32334,-16.87436 -17.43115,-16.87436 0.31796,0 1.792,1.125 3.27565,2.5 1.48365,1.375 3.30684,2.5 4.05152,2.5 3.01196,0 1.01961,-4.0145 -4.69981,-9.46989 -5.51028,-5.25593 -6.36153,-5.7244 -9.48167,-5.21807 -1.88534,0.30595 -3.6877,0.1359 -4.00523,-0.37788 -0.31754,-0.51379 -1.62593,-0.93416 -2.90754,-0.93416 -1.28161,0 -3.38865,-0.85708 -4.6823,-1.90461 -2.32241,-1.88058 -2.32803,-1.93121 -0.44505,-4.01187 1.18762,-1.31231 2.88194,-2.00847 4.49131,-1.84539 2.15437,0.21831 2.63691,-0.1956 2.90069,-2.48813 0.17403,-1.5125 0.70621,-2.75 1.18261,-2.75 1.95815,0 2.03557,-4.2255 0.15123,-8.25339 -5.48097,-11.71587 -5.28651,-9.12621 -6.32614,-84.24661 l -0.96876,-70 -2.17768,-1.74965 c -1.19772,-0.96231 -2.74018,-2.21755 -3.42768,-2.78943 -0.6875,-0.57187 -1.25,-2.59703 -1.25,-4.50035 0,-3.29483 -0.16931,-3.46057 -3.53518,-3.46057 -1.94435,0 -4.71261,-0.77148 -6.15168,-1.71439 -2.52638,-1.65535 -2.66712,-1.63813 -4.08678,0.5 -1.99856,3.00998 -6.30872,2.85741 -10.13075,-0.35861 -3.83576,-3.22758 -5.42833,-8.63813 -4.03157,-13.69676 1.13587,-4.11377 3.32583,-5.73024 7.76323,-5.73024 1.62731,0 3.20284,-0.63607 3.50116,-1.41349 0.34853,-0.90826 2.8938,-1.6653 7.12089,-2.11799 3.61817,-0.38747 6.78303,-1.03546 7.03303,-1.43997 0.46727,-0.75606 -67.42321,-35.02855 -69.38816,-35.02855 -0.60181,0 -1.09419,-0.45 -1.09419,-1 0,-0.55 -0.48851,-1 -1.08557,-1 -1.48388,0 -14.33291,-6.31658 -14.74776,-7.25 -0.18334,-0.4125 -0.78434,-0.75 -1.33557,-0.75 -1.42442,0 -14.26331,-6.34746 -14.66443,-7.25 -0.18334,-0.4125 -0.76313,-0.75 -1.28844,-0.75 -1.00577,0 -32.49634,-15.40972 -102.628231,-50.2205 C 5.5560122,261.96791 1.0000288,259.45362 1.0000288,257.36141 c 0,-1.2898 0.3648889,-2.57061 0.8108642,-2.84624 0.4459753,-0.27563 14.058475,6.19203 30.25,14.37258 16.191525,8.18054 47.214136,23.79199 68.939137,34.69212 21.725,10.90013 39.725,20.09249 40,20.42748 0.275,0.33499 2.1875,1.21289 4.25,1.95089 2.0625,0.738 3.75,1.70142 3.75,2.14093 0,0.43951 0.4873,0.79911 1.08289,0.79911 0.59559,0 4.53309,1.73493 8.75,3.8554 4.21691,2.12047 28.12142,14.12371 53.12112,26.67387 l 45.45402,22.81848 7.90287,-1.15185 c 8.2748,-1.20607 11.6891,-0.52278 11.6891,2.33928 0,0.94897 1.0191,1.46482 2.89384,1.46482 h 2.89384 l 0.71625,-9.04961 c 0.61632,-7.78707 0.47776,-9.31314 -0.99317,-10.9385 -1.01821,-1.12511 -1.85468,-4.02443 -2.06867,-7.17034 -0.25894,-3.80659 -1.66271,-7.87298 -5.02681,-14.56151 l -4.66754,-9.28004 h -11.40526 c -9.98947,0 -11.47238,0.21723 -11.94602,1.75 -1.15539,3.73903 -2.2107,4.76122 -5.22576,5.06175 -4.31749,0.43036 -6.2076,-0.88641 -7.78769,-5.4254 -2.89229,-8.30842 -1.22415,-12.71968 4.81001,-12.71968 2.25269,0 3.79157,0.85786 5.69671,3.17568 l 2.61027,3.17568 10.25,-0.009 c 9.09767,-0.008 10.24828,-0.20575 10.23469,-1.75901 -0.0231,-2.63434 -1.05434,-3.73571 -5.98469,-6.3914 -3.91918,-2.11102 -9.2911,-5.2544 -24.8468,-14.53907 -2.00926,-1.19926 -5.2282,-3.04712 -7.1532,-4.10636 -1.925,-1.05924 -8.675,-4.97712 -15,-8.70641 -6.325,-3.72928 -13.525,-7.90225 -16,-9.27326 -2.475,-1.37101 -5.175,-3.0224 -6,-3.66976 -0.825,-0.64736 -2.625,-1.73577 -4,-2.41869 -1.375,-0.68292 -4.16505,-2.23244 -6.2001,-3.44336 -11.68131,-6.95077 -29.41747,-17.25838 -30.28689,-17.60163 -0.55716,-0.21997 -1.23801,-0.66997 -1.51301,-1 -0.53778,-0.6454 -3.42155,-2.36254 -9,-5.35906 -1.925,-1.03403 -5.1365,-2.86127 -7.13666,-4.06053 -6.002,-3.59869 -19.85856,-11.63837 -30.36334,-17.61704 -2.2,-1.25211 -4.45,-2.63065 -5.000001,-3.06343 -1.022973,-0.80495 -6.638701,-4.07712 -12,-6.99216 -1.65,-0.89714 -4.575,-2.61423 -6.5,-3.81576 l -3.5,-2.1846 8.676595,-0.004 8.676594,-0.004 8.323402,5.1335 c 8.12013,5.00813 10.88084,6.6407 18.57341,10.98358 2.0625,1.1644 4.94447,2.9644 6.40437,4 1.4599,1.03561 2.95383,1.88292 3.31983,1.88292 0.366,0 2.62761,1.35 5.0258,3 2.39819,1.65 4.64819,3 5,3 0.35181,0 2.60181,1.35 5,3 2.39819,1.65 4.64819,3 5,3 0.35181,0 2.52073,1.25701 4.81982,2.79335 2.2991,1.53634 5.30518,3.34087 6.68018,4.01006 1.375,0.66919 5.65,3.21572 9.5,5.65896 3.85,2.44323 8.35,5.15456 10,6.02518 1.65,0.87062 4.62752,2.57958 6.61671,3.7977 3.39681,2.08009 12.75077,7.69972 20.33163,12.21475 2.88294,1.71702 13.98218,8.32174 22.62998,13.46619 1.41808,0.8436 5.46808,3.24528 9,5.33708 3.53192,2.09179 8.22168,4.90217 10.42168,6.24529 14.83332,9.05582 16.48724,9.77296 18.44759,7.99887 1.74449,-1.57874 1.97762,-1.54409 3.96534,0.58949 3.23592,3.47335 4.74621,1.00147 5.36701,-8.78417 l 0.51685,-8.14724 -3.42515,-1.84457 c -1.97924,-1.06589 -3.29893,-2.48124 -3.12616,-3.35275 0.34491,-1.73987 8.83067,-1.97835 22.10542,-0.62125 7.41252,0.75779 7.94299,0.97521 9.5,3.89363 1.84397,3.45629 7.04406,8.71743 8.62196,8.72317 0.56493,0.002 2.60214,0.99538 4.52714,2.20738 2.54797,1.60423 4.72945,2.12685 8.01988,1.92133 4.9815,-0.31115 9.98012,2.55256 9.98012,5.71762 0,3.80098 2.90363,6.14993 7.60216,6.14993 3.4325,0 5.06633,0.57758 6.94329,2.45455 1.35,1.35 2.45455,3.09856 2.45455,3.88569 0,0.78713 0.65507,2.69379 1.45571,4.23702 1.69966,3.27611 9.13904,5.78866 12.15016,4.10356 2.87483,-1.60884 7.47777,-0.95087 10.01357,1.43139 3.97418,3.73354 5.70327,13.5767 3.19773,18.20353 -0.65056,1.20134 -1.08604,3.51851 -0.96773,5.14925 0.25821,3.55928 -1.45823,8.23438 -4.11605,11.21098 -2.83566,3.17578 -2.4859,3.52461 9.85007,9.82403 2.1541,1.1 4.14154,2.225 4.41654,2.5 0.275,0.275 2.975,1.75727 6,3.29394 3.025,1.53667 9.55,4.98747 14.5,7.66844 4.95,2.68097 12.825,6.86096 17.5,9.28886 4.675,2.4279 14.575,7.70903 22,11.73585 19.4208,10.53254 28.61395,15.42859 36,19.17275 3.575,1.81225 9.425,4.92921 13,6.92657 3.575,1.99737 10.55,5.78058 15.5,8.40715 4.95,2.62656 11.925,6.35083 15.5,8.27614 3.575,1.92532 10.55,5.63697 15.5,8.24812 9.96562,5.25691 20.88051,11.13506 27,14.54069 2.2,1.22435 7.6,4.07455 12,6.33378 4.4,2.25924 12.95,6.78715 19,10.06204 6.05,3.27489 14.15,7.59148 18,9.59241 3.85,2.00093 7.45,4.00586 8,4.4554 0.55,0.44953 5.63464,3.22045 11.29919,6.15759 17.07154,8.85182 23.34212,12.16465 31.20081,16.4838 13.22894,7.27065 19.28349,10.52471 29.29919,15.74703 18.78009,9.79221 23.24893,12.15738 30.70081,16.24866 4.125,2.26473 11.1,6.03355 15.5,8.37516 4.4,2.34161 10.925,5.83212 14.5,7.75668 3.575,1.92457 10.55,5.63537 15.5,8.24622 4.95,2.61085 11.25,5.9702 14,7.46523 2.75,1.49503 9.05,4.87186 14,7.50408 4.95,2.63222 12.6,6.71808 17,9.07968 19.3569,10.3894 24.21038,12.97514 27.5,14.65085 1.925,0.98058 3.725,2.00788 4,2.28288 0.275,0.275 3.425,2.01582 7,3.86848 7.42653,3.84865 17.87129,9.34339 33,17.36055 5.775,3.06035 12.525,6.62328 15,7.91762 2.475,1.29434 4.725,2.57835 5,2.85335 0.275,0.275 3.425,2.01582 7,3.86848 6.81686,3.53269 15.19295,7.93394 33.5,17.60268 6.05,3.19527 11.225,6.08391 11.5,6.41921 0.275,0.3353 3.425,2.07433 7,3.86451 3.575,1.79018 10.775,5.53942 16,8.33164 5.225,2.79223 13.99997,7.4635 19.49997,10.3806 5.5,2.91711 12.25,6.52554 15,8.01873 2.75,1.49319 9.05,4.87 14,7.50402 4.95,2.63403 12.15,6.47878 16,8.54389 3.85,2.06512 11.05,5.89311 16,8.50666 11.1302,5.87661 19.619,10.44231 25.5,13.71521 2.475,1.37738 9,4.85883 14.5,7.73655 14.568,7.62229 25.5776,13.51344 29,15.51764 2.7886,1.63306 8.6954,4.79005 29,15.49962 17.3888,9.17163 37.6709,20.00409 44,23.4999 6.8591,3.78855 17.1052,9.26943 29,15.5128 5.5,2.88685 12.25,6.47306 15,7.96935 2.75,1.4963 6.7034,3.59009 8.7853,4.65287 2.0819,1.06278 3.5044,2.38692 3.161,2.94254 -0.4134,0.6688 -1.0726,0.63822 -1.9506,-0.0905 -0.7295,-0.60539 -5.0769,-3.02478 -9.661,-5.37641 -13.148,-6.74493 -30.2387,-15.81764 -31.3347,-16.63422 -0.55,-0.40978 -7.3,-4.01625 -15,-8.01438 -7.7,-3.99812 -17.6,-9.14095 -22,-11.4285 -7.3237,-3.80756 -17.1173,-9.03772 -31.5,-16.8221 -3.025,-1.63723 -10,-5.32526 -15.5,-8.19562 -5.5,-2.87037 -15.625,-8.1746 -22.5,-11.78719 -6.875,-3.61258 -14.525,-7.61901 -17,-8.90316 -2.475,-1.28415 -4.725,-2.55982 -5,-2.83482 -0.275,-0.275 -3.425,-1.97862 -7,-3.78582 -3.575,-1.8072 -11.225,-5.79735 -17,-8.867 -10.6238,-5.64698 -31.0899,-16.43628 -43,-22.66867 -3.575,-1.87075 -8.3,-4.42578 -10.5,-5.67783 -2.2,-1.25205 -8.5,-4.62049 -14,-7.48541 -5.49997,-2.86492 -15.62497,-8.1647 -22.49997,-11.77729 -6.875,-3.61258 -14.525,-7.61901 -17,-8.90316 -2.475,-1.28415 -4.725,-2.55982 -5,-2.83482 -0.275,-0.275 -3.425,-1.96519 -7,-3.75597 -3.575,-1.79078 -11.9,-6.14478 -18.5,-9.67556 -6.6,-3.53078 -15.375,-8.16701 -19.5,-10.30273 -10.01144,-5.18343 -26.42985,-13.93 -32,-17.04734 -2.475,-1.38514 -9.675,-5.20067 -16,-8.47895 -16.95627,-8.78852 -36.31113,-19.00481 -55,-29.03127 -4.125,-2.21303 -11.4363,-6.0902 -16.24733,-8.61594 -4.81103,-2.52573 -14.03603,-7.38501 -20.5,-10.7984 -6.46397,-3.41288 -14.22767,-7.50108 -17.25267,-9.08438 -3.025,-1.5833 -8.425,-4.47697 -12,-6.43038 -3.575,-1.95341 -11.45,-6.14032 -17.5,-9.30424 -6.05,-3.16393 -15.95,-8.37246 -22,-11.5745 -6.05,-3.20205 -13.925,-7.3593 -17.5,-9.23834 -3.575,-1.87904 -8.525,-4.5424 -11,-5.91859 -2.475,-1.37619 -9.45,-5.06412 -15.5,-8.19542 -6.05,-3.13129 -16.4,-8.5567 -23,-12.05645 -6.6,-3.49976 -14.475,-7.66905 -17.5,-9.2651 -3.025,-1.59605 -9.37007,-4.98303 -14.10016,-7.52663 -4.73009,-2.5436 -12.38009,-6.59832 -17,-9.01049 -4.61991,-2.41217 -13.57484,-7.13913 -19.89984,-10.50435 -6.325,-3.36522 -13.975,-7.4105 -17,-8.98951 -3.025,-1.57901 -9.37007,-4.95205 -14.10016,-7.49565 -4.73009,-2.5436 -12.38009,-6.58973 -17,-8.99139 -4.61991,-2.40166 -12.22484,-6.40713 -16.89984,-8.90104 -4.675,-2.49391 -12.4375,-6.62069 -17.25,-9.17063 -4.8125,-2.54994 -12.6875,-6.72647 -17.5,-9.28119 -4.8125,-2.55472 -12.575,-6.6665 -17.25,-9.13728 -4.675,-2.47079 -13.45,-7.11303 -19.5,-10.3161 -6.05,-3.20306 -13.925,-7.35217 -17.5,-9.22024 -3.575,-1.86808 -10.1,-5.32645 -14.5,-7.68527 -7.64939,-4.10081 -10.89634,-5.8211 -36,-19.07351 -25.08284,-13.24142 -30.98416,-16.01786 -32.97338,-15.51326 -2.63396,0.66814 -9.21178,7.09613 -11.27649,11.01962 -1.25072,2.37669 -1.71471,7.03746 -2.05231,20.61554 l -0.43622,17.54455 9.3692,4.56113 c 22.27763,10.84522 30.86201,14.84976 31.83286,14.84976 0.56999,0 1.03634,0.45 1.03634,1 0,0.55 0.53292,1 1.18428,1 1.30466,0 4.14259,1.28131 23.31572,10.52692 7.15,3.44785 18.175,8.74375 24.5,11.76866 6.325,3.0249 17.575,8.41503 25,11.97806 7.425,3.56303 16.65,7.93394 20.5,9.71314 3.85,1.77919 12.85,6.05747 20,9.50727 49.90361,24.07802 59.30506,28.50595 60.52436,28.50595 0.5366,0 0.97564,0.45 0.97564,1 0,0.55 0.44013,1 0.97807,1 1.40113,0 9.0785,3.58543 53.02193,24.76194 13.85294,6.67579 24.29995,11.64447 43,20.45117 4.675,2.20166 14.8,7.04971 22.5,10.77342 7.7,3.72372 18.275,8.79986 23.5,11.28033 5.225,2.48046 16.14267,7.71015 24.2615,11.62154 8.11882,3.91138 15.20632,7.1116 15.75,7.1116 0.54367,0 0.9885,0.40122 0.9885,0.89159 0,0.49038 1.177,1.187 2.61555,1.54806 1.43856,0.36105 9.65106,4.06231 18.25,8.22502 32.73354,15.84614 41.90773,20.25793 50.63445,24.34967 13.26193,6.21817 28.55497,13.47954 41,19.4674 6.05,2.91093 17.525,8.42123 25.5,12.24512 7.975,3.8239 19.32115,9.27467 25.21366,12.11284 5.89251,2.83816 11.18001,5.1603 11.75,5.1603 0.56999,0 1.03634,0.45 1.03634,1 0,0.55 0.43666,1 0.97036,1 1.18714,0 8.71763,3.37827 24.52964,11.00429 45.22093,21.80974 56.26808,26.99571 57.50622,26.99571 0.54658,0 0.99378,0.45 0.99378,1 0,0.55 0.44135,1 0.98078,1 1.05652,0 11.40619,4.73666 30.51919,13.96751 17.9171,8.65325 35.7769,17.21755 47,22.53791 14.7895,7.011 32.334,15.3879 68,32.4677 26.6776,12.77539 30.8414,14.7587 41,19.52924 9.7262,4.56747 18.7035,8.86334 44.5,21.29458 6.875,3.31303 17.45,8.35478 23.5,11.20389 22.8739,10.7719 29.5,14.17613 29.5,15.15584 0,1.19831 0.5334,1.40079 -10.0563,-3.81738 -9.7729,-4.81568 -26.1539,-12.62325 -36.9437,-17.60821 -4.125,-1.90578 -12.45,-5.82471 -18.5,-8.70874 -6.05,-2.88402 -15.5,-7.38815 -21,-10.00917 -5.5,-2.62102 -14.725,-7.02005 -20.5,-9.77562 -5.775,-2.75557 -14.55,-6.90654 -19.5,-9.22437 -13.407,-6.27782 -24.8206,-11.67518 -36,-17.02402 -23.2622,-11.12989 -41.2894,-19.6445 -55,-25.97749 -3.85,-1.77834 -13.075,-6.15669 -20.5,-9.72966 -22.0957,-10.63262 -32.19905,-15.42219 -57.49997,-27.25817 -4.95,-2.31565 -13.5,-6.36259 -19,-8.99322 -28.65139,-13.70381 -37.45898,-17.87494 -57,-26.99429 -4.95,-2.31005 -13.95,-6.57937 -20,-9.48737 -6.05,-2.908 -14.825,-7.10766 -19.5,-9.33258 -4.675,-2.22492 -14.575,-6.9531 -22,-10.50708 -7.425,-3.55398 -15.75,-7.46203 -18.5,-8.68457 -2.75,-1.22253 -9.5,-4.37126 -15,-6.99716 -5.5,-2.6259 -14.275,-6.81561 -19.5,-9.31046 -23.32246,-11.13609 -31.11474,-14.71711 -32.02436,-14.71711 -0.5366,0 -0.97564,-0.45 -0.97564,-1 0,-0.55 -0.43666,-1 -0.97036,-1 -1.19754,0 -9.11361,-3.53035 -23.52964,-10.49357 -10.42015,-5.03314 -16.95524,-8.13769 -39.77803,-18.89685 -5.37792,-2.53527 -10.21542,-4.60958 -10.75,-4.60958 -0.53459,0 -0.97197,-0.45 -0.97197,-1 0,-0.55 -0.47833,-1 -1.06295,-1 -0.58462,0 -3.62212,-1.19708 -6.75,-2.66017 -11.54432,-5.39998 -47.23275,-22.34914 -62.68705,-29.77136 -4.95,-2.37734 -11.025,-5.24163 -13.5,-6.3651 -6.66739,-3.02651 -28.34564,-13.32087 -61,-28.9671 -4.675,-2.24001 -12.1,-5.73276 -16.5,-7.76167 -4.4,-2.02891 -12.95,-6.05813 -19,-8.95382 -36.18787,-17.3205 -45.26395,-21.52078 -46.50267,-21.52078 -0.54853,0 -0.99733,-0.45 -0.99733,-1 0,-0.55 -0.44013,-1 -0.97807,-1 -1.29555,0 -8.51763,-3.35592 -49.02193,-22.77927 -5.775,-2.76933 -13.425,-6.38044 -17,-8.02469 -14.95753,-6.87941 -30.75316,-14.39628 -34.33708,-16.34042 -4.11795,-2.23383 -5.29924,-1.80127 -5.82824,2.13416 -0.19853,1.47691 -1.09937,2.63564 -2.21439,2.84831 -2.13557,0.40732 -15.41786,-3.52263 -17.47375,-5.17011 -0.7444,-0.59653 -5.6944,-1.26356 -11,-1.4823 -7.93456,-0.32713 -10.03682,-0.75629 -11.84566,-2.41821 -3.1701,-2.91261 -5.04946,-1.65341 -5.85702,3.92428 -0.38288,2.64454 -1.03926,5.25825 -1.45862,5.80825 -0.41935,0.55 -1.09322,3.925 -1.49747,7.5 -0.40425,3.575 -1.34396,8.84445 -2.08823,11.70988 -3.00035,11.55128 -3.56644,26.72618 -2.47288,66.29012 1.46051,52.84049 2.2975,56.22523 17.45562,70.58953 4.5912,4.35076 9.1959,8.58386 10.23268,9.4069 1.03677,0.82303 8.17956,7.46053 15.87287,14.75 8.5672,8.11749 14.77972,13.25357 16.0313,13.25357 2.2478,0 13.95984,11.18769 12.86168,12.28585 -0.37028,0.37029 1.19256,2.69739 3.47298,5.17135 2.28041,2.47396 4.14621,4.87973 4.14621,5.34614 0,0.46642 -1.07392,1.85692 -2.38648,3.09002 -2.3804,2.23627 -2.38511,2.28578 -1.8457,19.42273 l 0.54078,17.18075 3.3457,4.86379 c 1.84014,2.67509 3.3457,6.11322 3.3457,7.64029 0,2.38396 0.49723,2.86978 3.51701,3.43629 3.90963,0.73345 5.48299,0.16063 5.48299,-1.99623 0,-0.79254 0.71949,-1.44098 1.59887,-1.44098 0.87938,0 3.1638,-0.74261 5.07649,-1.65024 3.03249,-1.43901 6.31573,-1.57583 25.65113,-1.06891 27.88534,0.73106 34.28591,0.2457 35.10768,-2.66228 0.56142,-1.98666 0.68237,-2.00961 1.94251,-0.36857 1.79278,2.33469 13.73459,2.52578 15.62332,0.25 1.6719,-2.01452 7.00589,-1.86317 9.59427,0.27224 2.00707,1.65582 4.67061,8.81126 6.04062,16.22776 0.35559,1.925 0.99092,3.95 1.41183,4.5 0.42091,0.55 1.31838,3.925 1.99438,7.5 0.676,3.575 1.6183,6.9275 2.094,7.45 0.47569,0.5225 0.8649,1.76 0.8649,2.75 0,1.31715 0.77346,1.8 2.88337,1.8 2.01117,0 3.0366,0.58597 3.38994,1.93712 0.38542,1.47387 1.54926,2.01195 4.86663,2.25 3.69678,0.26528 4.32004,0.61713 4.09696,2.31288 -0.14471,1.1 -0.67044,8.62097 -1.16828,16.71327 -0.49785,8.09229 -1.13196,15.0802 -1.40913,15.52867 -0.55167,0.89262 1.63023,12.29979 2.67643,13.99257 0.35752,0.57848 1.3677,4.13737 2.24485,7.90864 2.77007,11.90988 5.42506,23.66596 6.62995,29.35685 0.64384,3.04099 1.1459,13.32413 1.12294,23 l -0.0415,17.5 -4.14607,12.36284 c -2.28033,6.79957 -4.14883,12.87457 -4.15222,13.5 -0.003,0.62544 -0.6089,2.29215 -1.34558,3.70381 -0.73667,1.41166 -1.64721,3.88666 -2.02341,5.5 -0.69259,2.97016 -7.23345,24.12862 -10.72314,34.68733 -1.04594,3.16469 -1.90448,6.31469 -1.90787,7 -0.003,0.68531 -0.63363,2.44868 -1.40053,3.9186 -0.76691,1.46993 -1.90193,5.03923 -2.52228,7.9318 -0.62034,2.89257 -1.50617,5.7399 -1.9685,6.32742 -0.46234,0.58751 -1.39476,3.43209 -2.07205,6.32128 -0.67729,2.8892 -1.63622,5.50326 -2.13096,5.80902 -0.49474,0.30576 -0.89952,1.36938 -0.89952,2.36359 0,1.19559 -1.60833,2.51752 -4.75,3.90415 -2.6125,1.15307 -6.41135,3.12556 -8.44189,4.38332 -7.03744,4.35915 -20.31246,12.28874 -21.21556,12.67264 -0.4991,0.2122 -5.13875,3.02472 -10.31033,6.25002 -5.17157,3.2253 -9.55473,5.8642 -9.74034,5.8642 -0.18561,0 -3.42096,1.8799 -7.18968,4.1776 -8.01282,4.8852 -12.9023,5.5432 -23.8522,3.2098 z M 205.16712,889.02827 c 3.89385,-1.68052 9.8038,-4.38406 22.58291,-10.3307 l 4.25,-1.9777 0.0996,-14.6608 c 0.19588,-28.81772 1.68532,-43.16197 5.8834,-56.66079 4.51477,-14.51714 4.87624,-16.03468 4.02327,-16.8906 -0.48814,-0.48984 -6.25306,-1.11159 -12.81093,-1.38167 l -11.92341,-0.49107 -0.64139,3.38167 c -0.35277,1.85992 -1.27156,4.58886 -2.04175,6.06431 -0.77019,1.47545 -1.71192,4.17545 -2.09275,6 -0.38083,1.82455 -1.2363,4.21736 -1.90105,5.31736 -0.66475,1.1 -1.79205,4.025 -2.50511,6.5 -0.71307,2.475 -1.64136,4.95 -2.06288,5.5 -0.42152,0.55 -1.33369,2.8 -2.02705,5 -0.69336,2.2 -1.59307,4.45 -1.99936,5 -0.4063,0.55 -1.30659,3.475 -2.00064,6.5 -0.69405,3.025 -1.76548,6.13216 -2.38096,6.90479 -1.55381,1.95058 -1.40239,41.60466 0.17314,45.34521 1.3736,3.26111 1.75288,3.30636 7.37491,0.87999 z m 287.40367,-12.87999 c 0.33488,-1.5125 0.99235,-4.1 1.46106,-5.75 1.39747,-4.91954 2.29209,-16.5 1.27466,-16.5 -0.50958,0 -4.04951,1.52587 -7.8665,3.39083 -3.81699,1.86495 -11.40008,5.51894 -16.85131,8.11996 -11.38424,5.43194 -11.33813,5.71838 1.41133,8.76798 4.125,0.98667 9.975,2.40648 13,3.15512 3.025,0.74864 5.82893,1.40728 6.23095,1.46364 0.40202,0.0564 1.00493,-1.13503 1.33981,-2.64753 z M 263.00003,865.6053 c 1.925,-0.61976 3.725,-1.43032 4,-1.80124 0.275,-0.37093 1.4,-0.85133 2.5,-1.06756 1.53144,-0.30104 1.94666,-1.08956 1.7723,-3.36568 -0.12523,-1.6349 -0.25614,-11.74754 -0.29092,-22.47254 -0.048,-14.80371 0.31966,-20.94501 1.52658,-25.5 2.48349,-9.37278 4.14926,-18.02835 3.71835,-19.32106 -0.27201,-0.81605 -4.00918,-1.17894 -12.14117,-1.17894 h -11.74819 l -1.20522,4.75 c -1.79128,7.05973 -5.22189,23.04769 -6.16902,28.75 -1.14904,6.9179 -2.41297,42.56989 -1.62104,45.72518 l 0.6468,2.57707 7.75577,-2.9842 c 4.26567,-1.64131 9.33076,-3.49128 11.25576,-4.11103 z m 187.84571,1.86844 c 1.45986,-0.78349 6.70429,-3.31124 11.65429,-5.61722 18.2274,-8.4913 28.06209,-13.165 30.5,-14.49439 2.42503,-1.32237 2.49777,-1.67216 2.42554,-11.66355 -0.0505,-6.97957 -0.78179,-13.20183 -2.26846,-19.3003 -2.61643,-10.73289 -5.99847,-22.39758 -7.11794,-24.54988 -0.44338,-0.85244 -1.38731,-4.14683 -2.09763,-7.32088 -1.00314,-4.48248 -1.64315,-5.65832 -2.8665,-5.26638 -4.17994,1.33919 -10.89405,3.87386 -13.72614,5.18183 -1.73312,0.80042 -3.63035,1.45531 -4.21607,1.45531 -0.58572,0 -2.54271,0.65894 -4.34887,1.46431 -1.80616,0.80537 -6.43393,2.62551 -10.28393,4.04475 -12.28778,4.5297 -16.84705,6.24931 -23.5,8.86345 -7.6018,2.98698 -7.18596,0.64153 -4.455,25.12749 0.92014,8.25 2.18643,21.075 2.81399,28.5 l 1.14101,13.5 4.5,0.59981 c 8.8754,1.183 19.12275,0.93704 21.84571,-0.52435 z m -49.49108,-2.34025 c 0.77079,-1.24717 -2.30729,-55.41486 -3.37224,-59.34409 l -0.97811,-3.60889 -12.77067,-0.69422 c -7.02386,-0.38182 -14.56232,-1.10959 -16.75213,-1.61726 -2.18982,-0.50767 -5.88125,-0.93377 -8.20319,-0.94689 l -4.22172,-0.0239 -0.27828,30.59746 c -0.15306,16.82861 -0.0533,30.92108 0.22171,31.31661 0.275,0.39554 7.025,1.28771 15,1.98261 15.60605,1.35983 29.07642,2.67055 30.19098,2.9377 0.38004,0.0911 0.90368,-0.17853 1.16365,-0.59917 z m -115.22707,-7.22905 c 3.90811,-0.0148 4.18962,-2.06958 4.67566,-34.12775 l 0.47023,-31.01544 -3.85123,0.31851 c -4.39844,0.36378 -3.91567,-0.82641 -7.63337,18.81852 -1.67509,8.85149 -2.18927,15.41518 -2.23258,28.5 -0.0309,9.35 0.26091,17.77135 0.64858,18.71412 0.63647,1.54784 0.976,1.57269 3.5,0.25616 1.53733,-0.80188 3.52755,-1.46073 4.42271,-1.46412 z m 63.99174,-5.00616 c 0.34061,-4.125 0.67811,-18.09665 0.75,-31.04812 l 0.1307,-23.54811 -13.25,-1.38653 c -7.2875,-0.7626 -16.85,-1.41594 -21.25,-1.45189 l -8,-0.0653 -0.80394,16 c -0.74889,14.90421 -0.48341,44.04598 0.40938,44.93877 0.21736,0.21736 6.92006,0.9259 14.89488,1.57453 7.97482,0.64862 15.84968,1.55564 17.49968,2.01558 1.65,0.45995 4.35,0.75411 6,0.65369 2.99032,-0.18198 3.002,-0.20678 3.6193,-7.68257 z m 44.8807,-60.94098 c 0,-1.06754 -0.45,-2.2191 -1,-2.55902 -0.55,-0.33992 -1,-1.39567 -1,-2.34612 0,-1.46994 -1.75526,-1.91097 -11.75,-2.95236 -6.4625,-0.67335 -14.7875,-1.21915 -18.5,-1.21289 l -6.75,0.0114 v 4.5 c 0,2.475 0.1125,4.5592 0.25,4.63156 0.51281,0.26986 23.53344,1.52897 31,1.69554 7.06417,0.1576 7.75,10e-4 7.75,-1.76808 z m -44,-5.3739 v -4.31489 l -14.25,-1.29265 c -7.8375,-0.71097 -16.56636,-1.50824 -19.39747,-1.77173 l -5.14747,-0.47906 -0.70663,4.1825 c -0.38865,2.30038 -0.32229,4.55457 0.14747,5.00932 0.46975,0.45474 9.1791,1.24192 19.3541,1.74929 10.175,0.50737 18.8375,0.99215 19.25,1.07729 0.4125,0.0851 0.75,-1.78689 0.75,-4.16007 z m 83.46769,0.87794 c 2.76777,-1.25926 7.16981,-3.2534 9.78231,-4.43143 2.6125,-1.17803 4.75,-2.81457 4.75,-3.63675 0,-1.90771 -0.62338,-1.85046 -5.5,0.50512 -2.2,1.06268 -4.60699,1.94741 -5.34887,1.96607 -0.74188,0.0187 -2.90564,0.77267 -4.80836,1.67557 -2.59247,1.2302 -3.74562,1.35551 -4.60113,0.5 -0.6279,-0.6279 -1.95164,-1.14164 -2.94164,-1.14164 -1.44125,0 -1.8,0.81883 -1.8,4.10841 0,3.97071 0.0911,4.08555 2.71769,3.42631 1.49473,-0.37515 4.98223,-1.7124 7.75,-2.97166 z m -141.46769,-5.56306 c 0,-3.77778 -0.16667,-4 -3,-4 -2.30293,0 -3,0.451 -3,1.94098 0,1.06754 -0.45,2.2191 -1,2.55902 -2.52426,1.56008 -0.33184,3.122 4.75,3.384 1.97767,0.10196 2.25,-0.36815 2.25,-3.884 z m -15.16052,-0.54705 c 2.41359,-5.29724 1.68242,-6.45224 -4.08948,-6.46006 -2.8875,-0.004 -8.2191,-0.28759 -11.84799,-0.63041 l -6.598,-0.6233 -0.62118,3.8279 c -0.34165,2.10534 -0.41077,4.03831 -0.15361,4.29548 0.25717,0.25717 4.6308,0.77549 9.71918,1.15184 5.08838,0.37634 9.96687,0.75206 10.84108,0.83493 0.87422,0.0829 2.11172,-0.9955 2.75,-2.39638 z m -32.83948,-2.87116 c 0,-1.33002 0.24212,-3.04916 0.53804,-3.82032 0.42224,-1.10035 -1.46092,-1.61969 -8.75,-2.4131 -10.53536,-1.14676 -12.04611,-0.61666 -11.58911,4.06646 0.26945,2.76111 0.72122,3.14904 4.30107,3.69326 2.2,0.33446 6.5875,0.67196 9.75,0.75 5.45393,0.1346 5.75,0.0174 5.75,-2.2763 z m 224,-4.11275 c 0,-2.25056 -3.30628,-2.54141 -8.01465,-0.70503 -6.63021,2.58594 -8.36315,3.80908 -7.73093,5.45662 0.47737,1.24399 1.72265,1.09517 8.15449,-0.97456 4.44136,-1.4292 7.59109,-2.99638 7.59109,-3.77703 z m -81,-2.38945 c 0,-1.64406 -0.97131,-2.00803 -6.75,-2.52933 -3.7125,-0.33492 -9.18755,-1.04573 -12.16678,-1.5796 -2.97923,-0.53386 -7.14173,-0.97066 -9.25,-0.97066 -3.58035,0 -3.83322,0.19513 -3.83322,2.95794 v 2.95793 l 7.75,0.34082 c 22.20492,0.9765 24.25,0.87723 24.25,-1.1771 z m -36.19375,-3.22413 0.30624,-2.64455 -13.80624,-0.71001 c -24.94702,-1.28295 -24.76486,-1.29135 -25.11391,1.15838 -0.285,2.0002 0.23068,2.20227 7,2.74289 4.01921,0.32098 11.80766,0.98048 17.30766,1.46555 13.54815,1.19487 13.94125,1.13958 14.30625,-2.01226 z m -56.80625,-3.74847 c 0,-1.89949 -2.28293,-3.49073 -3.40223,-2.37142 -1.4349,1.43489 -0.50449,4.26443 1.40223,4.26443 1.29565,0 2,-0.66667 2,-1.89301 z m -12,-1.60699 c 0,-2.8504 -0.99821,-3.03285 -7.55718,-1.38129 -7.0308,1.77038 -5.27718,3.2896 4.30718,3.73146 2.83996,0.13093 3.25,-0.16559 3.25,-2.35017 z m 164,0 c 0,-2.87918 -10e-4,-2.87951 -5.13398,-1.34171 -4.71964,1.41404 -4.95007,2.58046 -0.61602,3.11831 1.7875,0.22183 3.8125,0.47534 4.5,0.56336 0.70934,0.0908 1.25,-0.92127 1.25,-2.33996 z m 25.41022,-2.75 c -0.36227,-2.8875 -1.02465,-5.64938 -1.47195,-6.1375 -0.47035,-0.51328 -2.63166,-0.37422 -5.12577,0.32979 -2.37188,0.66952 -7.12353,1.96889 -10.55924,2.88751 -5.6939,1.52238 -6.24703,1.9077 -6.25,4.35378 -0.004,3.1884 1.02919,3.44466 14.78118,3.66659 l 9.28445,0.14983 z m -238.84457,2.61503 c 1.96501,-1.28752 3.84474,-1.49672 8.84526,-0.9844 6.1924,0.63443 6.36179,0.58873 6.82637,-1.84153 0.26201,-1.37065 0.24081,-2.72767 -0.0471,-3.0156 -0.82263,-0.82262 -19.0204,-0.6114 -19.51356,0.2265 -0.24278,0.4125 -0.75509,2.2125 -1.13847,4 -0.8138,3.79435 0.87397,4.33653 5.02751,1.61503 z m 36.31277,-2.33826 c 2.04082,-1.11042 0.21813,-1.82029 -5.44571,-2.1209 -5.70605,-0.30286 -7.61326,0.46004 -6.75321,2.70131 0.47735,1.24394 1.58372,1.40998 5.70633,0.85636 2.81279,-0.37773 5.73446,-1.02427 6.49259,-1.43677 z m -21.87842,-38.3306 c 0,-1.32013 1.49445,-3.75232 3.5,-5.69617 3.59345,-3.48291 4.30267,-5.38589 2.43699,-6.53894 -1.56244,-0.96565 -4.82094,2.38381 -7.54508,7.7557 -2.91124,5.74084 -2.97146,6.78324 -0.39191,6.78324 1.42125,0 2,-0.66667 2,-2.30383 z m 216.7787,-2.19617 c 0.17726,-1.27202 -1.35779,-3.63796 -4.21727,-6.5 -2.47278,-2.475 -4.5107,-5.01436 -4.5287,-5.64301 -0.0325,-1.13497 -2.23401,-2.35699 -4.24619,-2.35699 -1.63435,0 -0.1741,8.2036 1.64107,9.21943 1.99795,1.1181 2.04529,4.66187 0.0724,5.41894 -3.48272,1.33645 -1.06341,2.43627 4.75,2.15935 5.37153,-0.25587 6.28917,-0.57883 6.5287,-2.29772 z m -23.7787,-12.88337 c 0,-1.54236 -0.70573,-2.56792 -2,-2.90638 -1.1,-0.28766 -2,-1.24014 -2,-2.11663 0,-2.07188 -3.978,-2.08629 -10.8707,-0.0394 -5.26677,1.56407 -6.8305,3.17608 -5.76767,5.94576 0.45871,1.19539 2.61269,1.5 10.60699,1.5 9.90257,2e-5 10.03138,-0.0306 10.03138,-2.38335 z M 339.3299,697.48103 c 0.29912,-0.77949 0.86033,-10.12467 1.24712,-20.76706 l 0.70328,-19.34982 -3.50957,-1.89002 c -6.77553,-3.64887 -9.14757,1.04831 -3.73006,7.38638 1.62765,1.90422 2.95936,4.24016 2.95936,5.19098 0,0.95082 0.45,2.00687 1,2.34679 1.23594,0.76385 1.33487,11.17501 0.11336,11.92994 -0.48765,0.30138 -1.18748,2.15159 -1.55517,4.11157 -0.36769,1.95998 -1.31871,3.8131 -2.11336,4.11804 -2.15998,0.82886 -1.74256,3.34045 0.55517,3.34045 1.1,0 2,0.43588 2,0.96862 0,0.53273 -0.675,0.70959 -1.5,0.39301 -1.51371,-0.58087 -2.14274,1.66229 -0.83333,2.9717 1.18041,1.18041 4.10271,0.71004 4.6632,-0.75058 z m -5.20226,-9.47112 c 3.70402,-6.94846 3.88861,-14.51402 0.51509,-21.11163 -1.26553,-2.475 -2.89068,-4.5 -3.61145,-4.5 -0.72077,0 -1.90769,2.025 -2.63759,4.5 -0.7299,2.475 -1.77328,5.4 -2.31864,6.5 -2.39477,4.83034 -3.19987,10.5907 -2.00077,14.31509 2.60444,8.08932 5.84825,8.185 10.05336,0.29654 z m -10.12761,-38.98919 c 0,-1.03265 -0.70393,-2.46176 -1.56429,-3.17579 -0.95323,-0.79112 -1.34899,-2.15604 -1.01313,-3.4942 0.44277,-1.76412 -0.86133,-3.495 -6.63162,-8.8019 -6.74986,-6.2078 -7.2915,-6.50754 -8.98686,-4.97326 -0.99226,0.89798 -1.8041,2.11699 -1.8041,2.70891 0,1.21543 18.03859,19.6138 19.23025,19.6138 0.42336,0 0.76975,-0.8449 0.76975,-1.87756 z m -26.75097,-25.64485 c 0.38366,-2.00697 -0.27533,-3.12238 -3.22492,-5.4585 -2.80953,-2.22518 -3.98762,-2.65558 -4.86561,-1.77759 -1.70648,1.70648 -1.50677,2.21023 2.4415,6.1585 4.27206,4.27206 5.01141,4.4131 5.64903,1.07759 z m -23.24903,76.52241 c 0,-0.55 0.675,-1 1.5,-1 0.825,0 1.5,0.45 1.5,1 0,0.55 -0.675,1 -1.5,1 -0.825,0 -1.5,-0.45 -1.5,-1 z"
     id="path5856"
     inkscape:connector-curvature="0" />
</svg>
