<svg xmlns="http://www.w3.org/2000/svg" xmlns:xlink="http://www.w3.org/1999/xlink" version="1.0" width="1706.667" height="1613.333" viewBox="0 0 1280 1210"><defs><linearGradient id="a"><stop offset="0" stop-color="#0f6"/><stop offset="1" stop-color="#0082af"/></linearGradient><linearGradient xlink:href="#a" id="b" x1="617.254" y1="11530.919" x2="11980.661" y2="456.342" gradientUnits="userSpaceOnUse"/></defs><g transform="matrix(.1 0 0 -.1 0 1210)" fill="url(#b)"><path d="M5699 11502c-371-328-1786-1580-3144-2782C1196 7519 66 6517 43 6495l-41-40 329-370c181-203 333-371 338-373 6-2 949 828 2098 1844 1148 1017 2434 2154 2857 2529 423 374 773 680 777 680 5 0 1291-1135 2859-2523s2857-2525 2864-2528 122 119 267 283c140 158 289 327 332 375l78 87-1038 918c-571 505-1882 1665-2913 2578-1031 912-1998 1768-2149 1902-214 190-277 240-288 232-9-8-17-8-26-1-10 8-171-129-688-586zm-3789-1413V8888l108 98c59 53 418 378 798 721l691 623 6 347c4 190 7 406 7 480v133H1910v-1201z"/><path d="M4875 8574c-836-740-1845-1632-2242-1982l-722-637V3080c-1-2870-1-2875 20-2920 29-64 84-117 146-140 53-20 80-20 1478-20h1425l2 1277c3 1272 3 1278 24 1323 26 58 76 108 134 134 45 21 49 21 1260 21s1215 0 1260-21c58-26 108-76 134-134 21-45 21-51 24-1322l2-1278h1425c1398 0 1425 0 1478 20 62 23 117 76 146 140 21 45 21 51 20 2920v2875l-831 735c-457 404-1360 1202-2007 1775-1658 1467-1645 1455-1651 1455-3 0-689-606-1525-1346z"/></g></svg>