<svg xmlns="http://www.w3.org/2000/svg" xmlns:xlink="http://www.w3.org/1999/xlink" viewBox="0 0 67.579 42.056" height="158.952" width="255.417"><defs><linearGradient id="a"><stop offset="0" stop-color="#0f6"/><stop offset="1" stop-color="#008baf"/></linearGradient><linearGradient xlink:href="#a" id="b" x1="2.712" y1="3.544" x2="254.876" y2="157.036" gradientUnits="userSpaceOnUse"/></defs><path d="M15.01 0v64.617L0 79.475h25.17l8.01-7.862s.495-.375.636-.695c.097-.219.07-.787.07-.787V18.955h59.321l19.338 18.754 13.373-12.967-25.51-24.74h-9.607V0H15.01zm139.002 0L112.47 41.295 73.568 79.97l38.883 37.707 13.371-12.969-25.508-24.738 25.526-25.38c11.95-11.879 23.902-23.757 35.851-35.636h.004L180.762 0h-26.75zm35.93 0l-19.067 18.955h50.656v51.176s-.026.568.07.787c.142.32.637.695.637.695l8.008 7.862h25.172l-15.01-14.858V0h-50.467zm-46.975 41.275l-13.373 12.97 25.51 24.737-25.528 25.377L93.726 140h-.005l-19.065 18.954h26.75l41.54-41.297 38.902-38.674-38.881-37.707zM0 79.477l15.01 14.859v64.617h50.465l19.066-18.955H33.887V88.822s.026-.57-.07-.789c-.142-.32-.637-.695-.637-.695l-8.01-7.861H0zm230.246 0l-8.008 7.86s-.495.376-.636.696c-.097.219-.07.79-.07.79v51.175H162.21l-19.338-18.756-13.373 12.969 25.51 24.738h9.607v.004h75.791V94.336l15.01-14.86h-25.172z" transform="scale(.26458)" fill="url(#b)" stroke-width="50.356" paint-order="fill markers stroke"/></svg>