<svg xmlns="http://www.w3.org/2000/svg" xmlns:xlink="http://www.w3.org/1999/xlink" viewBox="0 0 247.038 247.038"><defs><linearGradient id="a"><stop offset="0" stop-color="#0f6"/><stop offset="1" stop-color="#0082af"/></linearGradient><linearGradient xlink:href="#a" id="b" gradientUnits="userSpaceOnUse" x1="18.671" y1="5.233" x2="230.983" y2="241.28"/></defs><path d="M162.633 0c-10.217 0-18.528 8.31-18.528 18.527s8.31 18.53 18.528 18.53c6.03 0 11.344-2.94 14.73-7.414L226.41 57.96v57.006l-49.367 28.502-49.367-28.502V55.584c0-1.423-.767-2.614-1.864-3.354-.096-.067-.175-.153-.277-.212l-.27-.157c-.047-.02-.084-.056-.132-.076L72.05 21.137a4.115 4.115 0 00-4.117 0l-53.485 30.88a4.114 4.114 0 00-2.058 3.565v61.762c0 1.472.783 2.83 2.058 3.564l51.465 29.715v61.418c0 1.472.786 2.831 2.06 3.566l53.485 30.88c.637.367 1.347.55 2.059.55a4.11 4.11 0 002.058-.55l49.727-28.71c3.247 2.801 7.42 4.557 12.035 4.557 10.217 0 18.527-8.31 18.527-18.527s-8.31-18.53-18.527-18.53-18.53 8.313-18.53 18.53c0 2.605.554 5.079 1.528 7.33l-46.816 27.029-49.368-28.502v-59.086l49.368-28.504 51.464 29.715a4.117 4.117 0 004.12 0l53.484-30.879a4.117 4.117 0 002.058-3.566v-61.76a4.126 4.126 0 00-2.058-3.566l-51.79-29.903c.23-1.162.362-2.359.362-3.588C181.16 8.311 172.85 0 162.633 0zm0 8.234c5.675 0 10.293 4.618 10.293 10.293 0 5.675-4.618 10.293-10.293 10.293-5.675 0-10.293-4.618-10.293-10.293 0-5.675 4.618-10.293 10.293-10.293zm-92.64 21.223l49.366 28.504.002 57.006-49.369 28.502-49.367-28.502V57.96l49.367-28.504zm.4 15.1a4.126 4.126 0 00-2.077.576l-32.515 19.26a4.117 4.117 0 004.197 7.086l30.443-18.034 23.12 13.348-27.409 15.826a5 5 0 00-2.5 4.33v34.903a5 5 0 1010 0V89.836L104.3 72.14a5 5 0 00-.625-9.018l-31.2-18.016a4.1 4.1 0 00-2.081-.55zm116.943 148.957c5.675 0 10.293 4.618 10.293 10.293 0 5.675-4.618 10.293-10.293 10.293-2.371 0-4.53-.839-6.272-2.192-.02-.658-.144-1.316-.496-1.926a4.108 4.108 0 00-2.582-1.925 10.182 10.182 0 01-.943-4.25c0-5.675 4.617-10.293 10.293-10.293z" fill="url(#b)"/></svg>