<svg xmlns="http://www.w3.org/2000/svg" xmlns:xlink="http://www.w3.org/1999/xlink" viewBox="0 0 60 60"><defs><linearGradient id="a"><stop offset="0" stop-color="#0f6"/><stop offset="1" stop-color="#0082af"/></linearGradient><linearGradient xlink:href="#a" id="b" x1="3.719" y1="2" x2="56.988" y2="57.483" gradientUnits="userSpaceOnUse"/></defs><g fill="url(#b)"><path d="M57.407 35.724l-2.85-2.85a2.99 2.99 0 00-4.221 0l-15.39 15.391-2.121 7.779-.519.519a.998.998 0 00-.006 1.405l-.005.02.019-.005a.994.994 0 001.406-.005l.52-.52 7.778-2.121 15.39-15.391a2.988 2.988 0 00-.001-4.222zm-20.152 13.06l10.243-10.243 4.243 4.243-10.243 10.243-4.243-4.243zm-.903 1.926l3.22 3.22-4.428 1.208 1.208-4.428zm19.641-12.179l-2.839 2.839-4.243-4.242 2.839-2.839a.987.987 0 011.394-.001l2.85 2.85a.985.985 0 01-.001 1.393zM11.719 2h34v28h2V0h-46v60h25v-2h-15V2zm-8 56V2h6v56h-6z"/><path d="M40.719 24V10h-24v14h24zm-22-12h20v10h-20V12z"/><path d="M21.719 14h14v2h-14zm0 4h14v2h-14z"/></g></svg>