<?xml version="1.0" encoding="UTF-8" standalone="no"?>
<!-- Created with Inkscape (http://www.inkscape.org/) -->

<svg
   xmlns:dc="http://purl.org/dc/elements/1.1/"
   xmlns:cc="http://creativecommons.org/ns#"
   xmlns:rdf="http://www.w3.org/1999/02/22-rdf-syntax-ns#"
   xmlns:svg="http://www.w3.org/2000/svg"
   xmlns="http://www.w3.org/2000/svg"
   xmlns:xlink="http://www.w3.org/1999/xlink"
   xmlns:sodipodi="http://sodipodi.sourceforge.net/DTD/sodipodi-0.dtd"
   xmlns:inkscape="http://www.inkscape.org/namespaces/inkscape"
   version="1.1"
   id="svg64"
   width="316"
   height="160"
   viewBox="0 0 316 160"
   sodipodi:docname="fff.svg"
   inkscape:version="0.92.4 (5da689c313, 2019-01-14)">
  <metadata
     id="metadata70">
    <rdf:RDF>
      <cc:Work
         rdf:about="">
        <dc:format>image/svg+xml</dc:format>
        <dc:type
           rdf:resource="http://purl.org/dc/dcmitype/StillImage" />
        <dc:title></dc:title>
      </cc:Work>
    </rdf:RDF>
  </metadata>
  <defs
     id="defs68">
    <linearGradient
       inkscape:collect="always"
       id="linearGradient3765">
      <stop
         style="stop-color:#00ff66;stop-opacity:1"
         offset="0"
         id="stop3761" />
      <stop
         style="stop-color:#0072a3;stop-opacity:1"
         offset="1"
         id="stop3763" />
    </linearGradient>
    <linearGradient
       inkscape:collect="always"
       xlink:href="#linearGradient3765"
       id="linearGradient3767"
       x1="33.682034"
       y1="62.40847"
       x2="297.52463"
       y2="108.61331"
       gradientUnits="userSpaceOnUse" />
  </defs>
  <sodipodi:namedview
     pagecolor="#ffffff"
     bordercolor="#666666"
     borderopacity="1"
     objecttolerance="10"
     gridtolerance="10"
     guidetolerance="10"
     inkscape:pageopacity="0"
     inkscape:pageshadow="2"
     inkscape:window-width="1324"
     inkscape:window-height="709"
     id="namedview66"
     showgrid="false"
     inkscape:zoom="2.3157747"
     inkscape:cx="186.50698"
     inkscape:cy="99.503114"
     inkscape:window-x="42"
     inkscape:window-y="27"
     inkscape:window-maximized="1"
     inkscape:current-layer="svg64" />
  <path
     style="fill:url(#linearGradient3767);fill-opacity:1"
     d="m 27.675393,152.35272 c 1.098194,-4.02962 2.869896,-20.83351 2.260784,-21.44262 -0.326181,-0.32618 -3.153831,-0.0788 -6.283667,0.54978 -9.135099,1.83459 -11.211658,1.5703 -11.988749,-1.52588 -0.941316,-3.7505 1.90384,-5.74611 11.113527,-7.79507 l 7.518175,-1.67263 v -6.93179 c 0,-3.81248 -0.146316,-6.93179 -0.325147,-6.93179 -0.178831,0 -2.091331,2.4653 -4.25,5.47843 -2.158669,3.01314 -4.487353,5.48814 -5.174853,5.5 -0.6875,0.0119 -1.25,-0.1442 -1.25,-0.34681 0,-0.20261 2.475,-5.15185 5.5,-10.99831 5.093402,-9.844109 5.5,-11.13524 5.5,-17.464965 0,-3.759259 -0.293169,-7.128185 -0.651486,-7.486503 -0.358318,-0.358317 -2.343166,3.166715 -4.410774,7.833405 -5.536816,12.496863 -15.065517,29.484753 -16.5383303,29.484753 -0.7047567,0 -1.5190856,-0.38462 -1.8096196,-0.85472 -0.290534,-0.47009 2.7678547,-8.23259 6.7964199,-17.25 6.613717,-14.803926 14.138095,-33.162141 17.683715,-43.145285 2.08325,-5.865656 4.060574,-4.842791 8.699052,4.5 8.331374,16.780998 26.945248,35.803836 42.999214,43.943955 10.391043,5.26874 17.743876,5.83393 25.343176,1.94803 20.22764,-10.343389 55.99891,-48.182205 81.19818,-85.89136 7.62551,-11.4111 10.70771,-15.2495316 12.24552,-15.2499994 1.51392,-4.605e-4 4.33304,3.3567435 10.70593,12.7493744 20.19181,29.759489 48.00254,60.455877 72.21253,79.705324 5.69052,4.524561 7.67091,5.544681 10.76402,5.544681 4.37519,0 10.9139,3.73507 10.50376,6 -0.23768,1.31254 -5.50708,1.45104 -42.16376,1.10828 l -41.89214,-0.39173 0.6161,12.89173 c 0.33885,7.09044 1.30901,16.71672 2.15592,21.39172 0.84691,4.675 1.54045,8.6125 1.5412,8.75 7.5e-4,0.1375 -7.24677,0.25 -16.10562,0.25 -14.9295,0 -16.05783,-0.12793 -15.43451,-1.75 1.87546,-4.88056 3.7184,-17.07074 4.25743,-28.16096 l 0.60323,-12.41096 -15.40958,0.68774 c -45.11266,2.01339 -105.262853,7.9457 -134.792,13.29384 l -3.382423,0.61261 0.6722,8.06026 c 0.649641,7.78975 1.835311,14.53031 3.165756,17.9974 0.576208,1.50157 -0.541981,1.67007 -11.082753,1.67007 -11.672848,0 -11.720964,-0.01 -11.110427,-2.25 z m 13.62007,-38.75 c 0,-4.88889 -0.06667,-5 -3,-5 -2.933333,0 -3,0.11111 -3,5 0,4.88889 0.06667,5 3,5 2.933333,0 3,-0.11111 3,-5 z m 24,1.5327 c 6.875,-0.8443 14.049876,-1.79634 15.944169,-2.11564 l 3.444169,-0.58054 -6.323036,-3.37834 C 69.710006,104.43887 58.318921,95.548241 51.756534,88.296568 l -5.461071,-6.034679 v 17.781711 17.7817 l 3.25,-0.5774 c 1.7875,-0.31756 8.875,-1.26818 15.75,-2.11248 z m 79.430657,-8.07093 c 10.96186,-0.83816 27.72436,-1.80581 37.25,-2.15033 l 17.31934,-0.62641 V 76.345273 48.402801 l -6.35345,7.849957 c -12.65199,15.632091 -45.71708,45.881722 -49.35684,45.154152 -1.33287,-0.26643 2.52647,-4.817918 15.11942,-17.830974 9.30002,-9.610272 22.23554,-23.548221 28.74559,-30.973221 l 11.83645,-13.5 -0.0544,-10.5 c -0.044,-8.498451 -0.28146,-10.149834 -1.24559,-8.663049 -23.23086,35.824566 -44.84276,61.068548 -68.44119,79.943363 -6.1875,4.948971 -11.25,9.132181 -11.25,9.296041 0,0.16385 1.4625,0.098 3.25,-0.14637 1.7875,-0.24436 12.2188,-1.13005 23.18066,-1.96821 z m 71.35452,-13.22966 c 0.31861,-11.471567 0.0215,-11.981243 -6.29271,-10.79668 l -3.49247,0.655191 V 94.202819 104.7123 l 4.75,-0.30479 4.75,-0.30479 z m 59.14482,7.10669 C 262.39864,90.340721 235.22939,61.455052 224.57714,47.093495 l -2.21832,-2.99078 -0.0317,30.25 -0.0317,30.250005 h 28.68 28.68 z M 41.295463,96.602715 v -6 h -3 -3 v 6 6.000005 h 3 3 z M 41.099431,80.372874 c 0.236289,-3.676735 -0.285834,-5.736261 -2.345022,-9.25 -1.456944,-2.486087 -2.83123,-4.520159 -3.053968,-4.520159 -0.222738,0 -0.404978,4.30489 -0.404978,9.566422 v 9.566423 l 2.75,-0.316423 c 2.516441,-0.289548 2.775816,-0.71813 3.053968,-5.046263 z M 216.29546,67.543698 v -9.940983 h -5 -5 v 9.942502 9.942502 l 4.25,0.314592 c 2.3375,0.173025 4.5875,0.172341 5,-0.0015 0.4125,-0.173861 0.75,-4.789553 0.75,-10.257094 z m 0,-23.240983 c 0,-8.359303 -0.83725,-9.7 -6.05754,-9.7 h -3.65755 l -0.64245,6.146691 c -1.18403,11.328197 -1.39658,10.853309 4.85754,10.853309 h 5.5 z m -6,-15.292271 c 0,-0.325749 -0.9,-1.736435 -2,-3.134858 l -2,-2.542588 v 3.134858 c 0,2.468192 0.42532,3.134859 2,3.134859 1.1,0 2,-0.266522 2,-0.592271 z m 88,69.849121 C 277.28331,81.387403 246.9074,49.174905 229.99127,26.425568 c -3.9577,-5.322431 -7.4327,-9.709931 -7.72224,-9.75 -0.28953,-0.04007 -0.35476,1.727147 -0.14496,3.927147 0.2098,2.2 0.1704,4 -0.0876,4 -1.15593,0 -5.74101,-7.82977 -5.74101,-9.803751 0,-1.609052 -0.60157,-2.197939 -2.25,-2.202572 -1.44904,-0.0041 -2.85641,-1.072023 -3.95349,-2.9999989 l -1.70349,-2.9936776 h 6.85883 6.85884 l 5.34465,7.2391905 c 19.45884,26.356461 47.42555,57.201118 72.09466,79.513655 7.0125,6.342618 12.75,12.142939 12.75,12.889599 0,3.0315 -4.02744,0.90686 -14,-7.385595 z M 64.256501,87.852715 c -3.41888,-3.7125 -8.672872,-10.239877 -11.675537,-14.505282 -3.002665,-4.265405 -5.857731,-7.509094 -6.344591,-7.208198 -1.090538,0.673989 -6.895697,-8.372282 -6.92191,-10.78652 -0.01432,-1.31853 0.798275,-1.75 3.295788,-1.75 2.846097,0 3.567433,0.530226 5.101608,3.75 2.820004,5.918342 12.316542,20.079727 18.72391,27.921389 5.617732,6.875263 6.91909,9.328611 4.948286,9.328611 -0.501275,0 -3.708674,-3.0375 -7.127554,-6.75 z"
     id="path76"
     inkscape:connector-curvature="0" />
</svg>
